<?xml version="1.0" encoding="UTF-8"?>
<svg version="1.1" xmlns="http://www.w3.org/2000/svg" width="501" height="426">
<path d="M0 0 C0.52867676 0.44746582 1.05735352 0.89493164 1.60205078 1.35595703 C27.04671753 23.16453226 45.70876314 54.76332432 56.375 86.3125 C56.7148291 87.31410156 56.7148291 87.31410156 57.06152344 88.3359375 C60.87788354 100.24986769 62.50923869 111.75019292 62.375 124.25 C62.37101196 124.92498535 62.36702393 125.5999707 62.36291504 126.29541016 C62.2880526 137.13446687 61.48022967 147.44560275 59 158 C58.73316406 159.23621094 58.46632813 160.47242188 58.19140625 161.74609375 C52.80220747 184.38072863 41.59382923 203.91766888 26 221 C25.33484375 221.73605469 24.6696875 222.47210938 23.984375 223.23046875 C-1.971182 250.54923777 -45.47758639 272.27090557 -83.21875 273.26953125 C-90.81770858 273.35998359 -98.40415376 273.20560986 -106 273 C-107.47194824 272.97462158 -107.47194824 272.97462158 -108.97363281 272.94873047 C-141.31943207 272.39104427 -170.64481162 263.00165743 -193.77978516 239.70800781 C-223.9782468 208.11602777 -244.64259549 156.79150329 -244.35791016 113.12890625 C-244.10171621 102.64999592 -242.62350191 92.34078897 -241 82 C-240.89316895 81.26442871 -240.78633789 80.52885742 -240.67626953 79.77099609 C-237.0779459 55.07905118 -227.20058215 31.03781194 -211 12 C-210.48050781 11.33097656 -209.96101563 10.66195312 -209.42578125 9.97265625 C-205.06380378 4.46081652 -199.53029922 0.28176906 -194 -4 C-193.27554688 -4.58652344 -192.55109375 -5.17304687 -191.8046875 -5.77734375 C-176.09380862 -17.74351494 -156.90468913 -23.42628489 -138 -28 C-137.27619141 -28.18143555 -136.55238281 -28.36287109 -135.80664062 -28.54980469 C-88.49023311 -40.24626628 -37.41969014 -31.7251514 0 0 Z " fill="#F1F2F6" transform="translate(353,92)"/>
<path d="M0 0 C0.66 0.99 1.32 1.98 2 3 C2.7425 3.0825 3.485 3.165 4.25 3.25 C7.95858582 4.2614325 9.58661142 6.13958633 11.97265625 9.078125 C13 11 13 11 12.375 14.4375 C11.92125 15.283125 11.4675 16.12875 11 17 C12.98 16.67 14.96 16.34 17 16 C17.64995297 17.41478135 18.29478722 18.83191487 18.9375 20.25 C19.47697266 21.43335938 19.47697266 21.43335938 20.02734375 22.640625 C21.48911707 26.18645265 22.12669557 29.27618445 22.09765625 33.109375 C22.09282227 34.24052734 22.09282227 34.24052734 22.08789062 35.39453125 C22.07532227 36.56048828 22.07532227 36.56048828 22.0625 37.75 C22.05798828 38.54277344 22.05347656 39.33554688 22.04882812 40.15234375 C22.03708565 42.10159508 22.01915146 44.05080738 22 46 C20.515 46.495 20.515 46.495 19 47 C19.185625 47.94875 19.37125 48.8975 19.5625 49.875 C20 53 20 53 19 55 C11.91923749 55.40850553 5.80074041 53.90420731 -1 52 C-1.96891192 46.62694301 -1.96891192 46.62694301 -2 44 C-0.5625 42 -0.5625 42 1 41 C0.01 40.505 0.01 40.505 -1 40 C-1 39.01 -1 38.02 -1 37 C-1.45375 37.804375 -1.9075 38.60875 -2.375 39.4375 C-5.79652016 42.77755539 -8.12417096 42.63109681 -12.7578125 42.76171875 C-15.20303262 42.78408419 -15.20303262 42.78408419 -17 45 C-21.13263259 44.65561395 -24.38108204 42.93570031 -28 41 C-28 41.66 -28 42.32 -28 43 C-28.99 43.495 -28.99 43.495 -30 44 C-29.21753906 44.36351562 -28.43507812 44.72703125 -27.62890625 45.1015625 C-26.61699219 45.60429687 -25.60507813 46.10703125 -24.5625 46.625 C-23.55316406 47.11226562 -22.54382813 47.59953125 -21.50390625 48.1015625 C-19 50 -19 50 -18.15234375 53.2109375 C-18.10207031 54.13132813 -18.05179687 55.05171875 -18 56 C-33.5409541 68.25652565 -33.5409541 68.25652565 -40 70 C-42.9524928 68.89215261 -45.18368576 67.59473463 -47 65 C-47.55177892 62.32068888 -47.77564586 59.73712045 -48 57 C-49.32 57 -50.64 57 -52 57 C-55.79016182 46.50937353 -57.45141814 37.03138161 -55 26 C-54.34 26 -53.68 26 -53 26 C-52.67 26.66 -52.34 27.32 -52 28 C-51.01 27.67 -50.02 27.34 -49 27 C-49.309375 26.4225 -49.61875 25.845 -49.9375 25.25 C-50.97970459 23.04297852 -51.69542057 21.41897866 -52 19 C-49.61295437 13.90284993 -45.90366787 8.83896561 -41 6 C-38.6875 6.25 -38.6875 6.25 -37 7 C-37 5.35 -37 3.7 -37 2 C-35.730447 1.35165346 -34.45930294 0.70642185 -33.1875 0.0625 C-32.47980469 -0.29714844 -31.77210938 -0.65679687 -31.04296875 -1.02734375 C-22.16376119 -5.25472938 -8.72998427 -4.13525571 0 0 Z " fill="#E5E5E9" transform="translate(279,122)"/>
<path d="M0 0 C1.39456452 0.00667256 2.78911118 0.01863093 4.18359375 0.03515625 C4.89451172 0.03966797 5.60542969 0.04417969 6.33789062 0.04882812 C8.09899388 0.06064761 9.86005411 0.07858362 11.62109375 0.09765625 C13.74442237 6.76051504 14.58600425 13.44042243 15.4765625 20.359375 C15.59644531 21.25269531 15.71632813 22.14601562 15.83984375 23.06640625 C15.94232422 23.86498047 16.04480469 24.66355469 16.15039062 25.48632812 C16.59893541 28.23508436 16.59893541 28.23508436 17.57788086 31.38818359 C18.7072827 35.40412827 19.43520172 39.36735037 20.09375 43.48046875 C20.2217247 44.25776337 20.3496994 45.03505798 20.48155212 45.83590698 C20.88610461 48.29754138 21.28506607 50.76004 21.68359375 53.22265625 C22.08683119 55.69221443 22.49123053 58.16157826 22.89634705 60.63082886 C23.14700739 62.1609848 23.3963912 63.69135058 23.64430237 65.22195435 C24.11541235 68.11585899 24.59993157 70.9965946 25.20092773 73.86669922 C25.78246107 76.95446893 25.68251873 79.9649825 25.62109375 83.09765625 C21.99109375 83.09765625 18.36109375 83.09765625 14.62109375 83.09765625 C13.94943306 79.20262392 13.28358179 75.30674978 12.62109375 71.41015625 C12.4303125 70.30736328 12.23953125 69.20457031 12.04296875 68.06835938 C11.77226562 66.46831055 11.77226562 66.46831055 11.49609375 64.8359375 C11.32851563 63.85665283 11.1609375 62.87736816 10.98828125 61.8684082 C10.62109375 59.09765625 10.62109375 59.09765625 10.62109375 54.09765625 C6.66109375 54.09765625 2.70109375 54.09765625 -1.37890625 54.09765625 C-1.50265625 55.91265625 -1.62640625 57.72765625 -1.75390625 59.59765625 C-2.35271386 67.4689389 -3.34450482 75.27436777 -4.37890625 83.09765625 C-8.00890625 83.09765625 -11.63890625 83.09765625 -15.37890625 83.09765625 C-15.04298107 73.63383311 -14.24015183 64.71477209 -12.19921875 55.44140625 C-11.06545076 49.8770981 -10.51151126 44.23643695 -9.87890625 38.59765625 C-8.94992539 30.35141917 -7.7714817 22.32934362 -6.00390625 14.21875 C-5.24719196 10.43990799 -4.85607123 6.6967509 -4.58984375 2.85546875 C-4.19995843 -0.3935756 -3.39187055 0.09803094 0 0 Z " fill="#08080B" transform="translate(299.37890625,222.90234375)"/>
<path d="M0 0 C3.63 0 7.26 0 11 0 C11.01213028 1.28999405 11.01213028 1.28999405 11.02450562 2.60604858 C11.10235427 10.6994356 11.18961511 18.79265405 11.28752708 26.8858242 C11.33753399 31.04689558 11.38386341 35.20794101 11.421875 39.36914062 C11.45867262 43.38278867 11.50501703 47.396222 11.55806351 51.40968704 C11.57663696 52.94309356 11.59173396 54.47654616 11.60334396 56.01002121 C11.62015641 58.15322746 11.64917788 60.29593881 11.68115234 62.43896484 C11.69447601 63.66030121 11.70779968 64.88163757 11.7215271 66.13998413 C11.70703344 69.13053567 11.70703344 69.13053567 14 71 C17 71.33333333 17 71.33333333 20 71 C22.81045385 68.18954615 22.27588114 66.37756244 22.31884766 62.43896484 C22.32889328 61.76567642 22.3389389 61.092388 22.34928894 60.3986969 C22.38022182 58.16945259 22.39718368 55.94032891 22.4140625 53.7109375 C22.43276607 52.16678828 22.45233887 50.62264935 22.4727478 49.07852173 C22.5241609 45.01137355 22.56373727 40.9441922 22.60089111 36.87689209 C22.64087343 32.7277398 22.69199202 28.57872658 22.7421875 24.4296875 C22.83905537 16.28655319 22.92342514 8.14335029 23 0 C26.63 0 30.26 0 34 0 C34.0929248 8.98863096 34.16387837 17.97709505 34.20724869 26.9661026 C34.22807062 31.14066101 34.25628851 35.31488933 34.30175781 39.48925781 C34.34540966 43.52228513 34.36917763 47.55499614 34.37950897 51.58824158 C34.38686585 53.12235997 34.40123192 54.65646222 34.42292023 56.19044495 C34.62767257 71.28059441 34.62767257 71.28059441 30 78 C23.95563914 82.81081783 18.55067034 83.84812522 11 83 C5.68434842 80.34217421 1.89763992 76.69291975 0 71 C-0.08989374 68.71540326 -0.11757205 66.42820674 -0.11352539 64.1418457 C-0.11367142 63.44890411 -0.11381744 62.75596252 -0.1139679 62.04202271 C-0.11327163 59.75324363 -0.1054926 57.4645461 -0.09765625 55.17578125 C-0.09579106 53.58823186 -0.09436763 52.00068189 -0.09336853 50.41313171 C-0.08955134 46.2357728 -0.07972786 42.05844869 -0.06866455 37.88110352 C-0.05843328 33.61800609 -0.05386723 29.35490304 -0.04882812 25.09179688 C-0.03810489 16.72784862 -0.02103803 8.36392864 0 0 Z " fill="#060709" transform="translate(204,223)"/>
<path d="M0 0 C4.86634517 2.57089934 9.22361005 5.67083015 11 11 C11.08021999 12.40824893 11.10765977 13.81997231 11.09765625 15.23046875 C11.09443359 16.03291016 11.09121094 16.83535156 11.08789062 17.66210938 C11.07951172 18.49548828 11.07113281 19.32886719 11.0625 20.1875 C11.05798828 21.03248047 11.05347656 21.87746094 11.04882812 22.74804688 C11.03705403 24.83206155 11.0191189 26.91603977 11 29 C7.37 29 3.74 29 0 29 C-0.33 23.39 -0.66 17.78 -1 12 C-3.31 12 -5.62 12 -8 12 C-9.30271154 23.13339958 -9.30271154 23.13339958 -4.87792969 33.11254883 C-2.6386122 35.79366188 -0.35571337 38.42039989 2 41 C10.67262279 50.61226274 12.21256959 57.58429655 11.70703125 70.27734375 C11.17391234 75.63809194 9.14888524 79.05878014 5.140625 82.6796875 C0.15161846 85.83389411 -3.09635519 86.8569807 -9 86 C-13.95520521 83.42710499 -17.49116963 80.01766074 -20 75 C-20.08308638 73.62451844 -20.10736016 72.24514204 -20.09765625 70.8671875 C-20.09443359 70.06152344 -20.09121094 69.25585938 -20.08789062 68.42578125 C-20.07951172 67.58402344 -20.07113281 66.74226563 -20.0625 65.875 C-20.05798828 65.02550781 -20.05347656 64.17601562 -20.04882812 63.30078125 C-20.03702874 61.20049091 -20.01909306 59.1002367 -20 57 C-16.37 57 -12.74 57 -9 57 C-8.93941406 58.07121094 -8.87882813 59.14242187 -8.81640625 60.24609375 C-8.73201463 61.64324391 -8.64736594 63.04037857 -8.5625 64.4375 C-8.50352539 65.49807617 -8.50352539 65.49807617 -8.44335938 66.58007812 C-8.52375562 70.08690419 -8.52375562 70.08690419 -7 73 C-4.5 73.16666667 -4.5 73.16666667 -2 73 C-0.11549666 71.11549666 -0.48439427 68.35146297 -0.3125 65.8125 C-0.37333044 55.81603109 -6.01507637 49.71319962 -12.35693359 42.44482422 C-19.98466186 33.65234042 -21.18581591 26.89358637 -20.70703125 15.50390625 C-20.12469008 9.84780027 -17.5970342 6.40691108 -13.375 2.6875 C-8.96655665 -0.44481501 -5.31835295 -0.65470449 0 0 Z " fill="#08080A" transform="translate(185,221)"/>
<path d="M0 0 C2.79198366 1.39599183 4.6542879 3.60464523 6.75 5.875 C6.09 7.855 5.43 9.835 4.75 11.875 C6.73 11.545 8.71 11.215 10.75 10.875 C11.39995297 12.28978135 12.04478722 13.70691487 12.6875 15.125 C13.22697266 16.30835938 13.22697266 16.30835938 13.77734375 17.515625 C15.23911707 21.06145265 15.87669557 24.15118445 15.84765625 27.984375 C15.84443359 28.73847656 15.84121094 29.49257812 15.83789062 30.26953125 C15.82532227 31.43548828 15.82532227 31.43548828 15.8125 32.625 C15.80798828 33.41777344 15.80347656 34.21054688 15.79882812 35.02734375 C15.78708565 36.97659508 15.76915146 38.92580738 15.75 40.875 C14.76 41.205 13.77 41.535 12.75 41.875 C12.935625 42.82375 13.12125 43.7725 13.3125 44.75 C13.75 47.875 13.75 47.875 12.75 49.875 C5.66923749 50.28350553 -0.44925959 48.77920731 -7.25 46.875 C-8.21891192 41.50194301 -8.21891192 41.50194301 -8.25 38.875 C-6.8125 36.875 -6.8125 36.875 -5.25 35.875 C-5.91 35.545 -6.57 35.215 -7.25 34.875 C-7.25 33.885 -7.25 32.895 -7.25 31.875 C-7.70375 32.679375 -8.1575 33.48375 -8.625 34.3125 C-12.04652016 37.65255539 -14.37417096 37.50609681 -19.0078125 37.63671875 C-21.45303262 37.65908419 -21.45303262 37.65908419 -23.25 39.875 C-27.02745297 39.52582368 -29.8138478 38.20350651 -33.0625 36.3125 C-33.85269531 35.85746094 -34.64289063 35.40242188 -35.45703125 34.93359375 C-36.34455078 34.40958984 -36.34455078 34.40958984 -37.25 33.875 C-37.82792668 29.82951322 -38.08559221 26.36770842 -36.04296875 22.71875 C-33.55280062 19.87284356 -31.62131797 18.07653555 -27.8046875 17.515625 C-26.09987508 17.54690596 -24.39525093 17.62915474 -22.6953125 17.76171875 C-19.19390848 17.92392437 -16.53720582 17.01837594 -13.25 15.875 C-13.91 14.885 -14.57 13.895 -15.25 12.875 C-15.375 9.6875 -15.375 9.6875 -15.25 6.875 C-13.17426919 5.67215599 -11.09116905 4.48794299 -9 3.3125 C-8.41347656 2.97025391 -7.82695312 2.62800781 -7.22265625 2.27539062 C-2.84715402 -0.15817522 -2.84715402 -0.15817522 0 0 Z " fill="#EBECF0" transform="translate(285.25,127.125)"/>
<path d="M0 0 C3.63 0 7.26 0 11 0 C11.06959803 9.15358757 11.12286092 18.30708365 11.15543652 27.46087837 C11.17107344 31.71164439 11.19227545 35.962229 11.22631836 40.21289062 C11.25898252 44.31721651 11.27686786 48.42136819 11.28463173 52.52581406 C11.2901626 54.08947363 11.30096312 55.65312398 11.31719017 57.21670914 C11.33905886 59.41177002 11.34196308 61.60611674 11.34057617 63.80126953 C11.34723801 65.04925323 11.35389984 66.29723694 11.36076355 67.58303833 C10.89452353 71.99901741 9.51107769 75.38126283 6.46484375 78.64453125 C1.65430412 82.3231792 -0.26254683 83.17563422 -6.3125 82.8125 C-7.44300781 82.75707031 -8.57351563 82.70164062 -9.73828125 82.64453125 C-14.80303028 81.64371258 -17.19097723 79.02767757 -20.3125 75.0625 C-23.15819567 69.85110552 -22.3109457 63.74385801 -22 58 C-18.37 58 -14.74 58 -11 58 C-10.8046875 60.50651042 -10.609375 63.01302083 -10.4140625 65.51953125 C-10.13354964 68.24398499 -10.13354964 68.24398499 -8 71 C-4.91634129 71.2502157 -4.91634129 71.2502157 -2 71 C-0.56655548 68.13311096 -0.83545941 65.64323922 -0.79467773 62.43896484 C-0.78477814 61.76567642 -0.77487854 61.092388 -0.76467896 60.3986969 C-0.73304885 58.16947974 -0.70830066 55.94024126 -0.68359375 53.7109375 C-0.66302552 52.16679322 -0.64202908 50.62265459 -0.62062073 49.07852173 C-0.56538651 45.01135833 -0.51598322 40.94414401 -0.46777344 36.87689209 C-0.41756825 32.72777771 -0.36187707 28.57873741 -0.30664062 24.4296875 C-0.19904254 16.28652095 -0.09760126 8.14329248 0 0 Z " fill="#07070A" transform="translate(267,223)"/>
<path d="M0 0 C3.63 0 7.26 0 11 0 C11 24.09 11 48.18 11 73 C16.28 73 21.56 73 27 73 C27 76.63 27 80.26 27 84 C18.09 84 9.18 84 0 84 C0 56.28 0 28.56 0 0 Z " fill="#0B0B0D" transform="translate(333,222)"/>
<path d="M0 0 C2.04174058 0.31201674 4.08338913 0.62463569 6.125 0.9375 C7.26195312 1.11152344 8.39890625 1.28554687 9.5703125 1.46484375 C12.71732669 1.95589266 15.85930783 2.47018719 19 3 C16.17351107 11.07368371 10.26784289 15.61330439 2.8125 19.4375 C-5.49703291 23.43435266 -15.013051 24.71501143 -24 22.140625 C-26.39149812 21.18124494 -28.7007186 20.16130034 -31 19 C-31.66 18.67 -32.32 18.34 -33 18 C-33 17.34 -33 16.68 -33 16 C-32.31035156 15.64808594 -31.62070313 15.29617187 -30.91015625 14.93359375 C-25.95348026 12.32946905 -21.58462679 9.77293211 -17.375 6.0625 C-13.70300421 3.04315696 -13.70300421 3.04315696 -10.58203125 2.8515625 C-8.1875 3.1875 -8.1875 3.1875 -6.04296875 3.73046875 C-3.44439753 4.07330128 -2.20388457 3.33223584 0 2 C0 1.34 0 0.68 0 0 Z " fill="#07070A" transform="translate(276,178)"/>
<path d="M0 0 C0.495 1.485 0.495 1.485 1 3 C0.34 3.99 -0.32 4.98 -1 6 C-0.01 6.33 0.98 6.66 2 7 C1.505 7.33 1.01 7.66 0.5 8 C-1.88179561 11.17572747 -1.19168226 14.10246066 -1 18 C4.94 18.99 4.94 18.99 11 20 C11.495 22.475 11.495 22.475 12 25 C10.06201479 24.69052329 8.12462574 24.37731166 6.1875 24.0625 C5.10855469 23.88847656 4.02960938 23.71445313 2.91796875 23.53515625 C0 23 0 23 -3 22 C-3 22.66 -3 23.32 -3 24 C-5.37918142 26.37918142 -6.67369537 26.97336289 -10.0625 27.25 C-13 27 -13 27 -16 26 C-18.08728562 27.3012244 -18.08728562 27.3012244 -20.1875 29.1875 C-24.27301355 32.5362816 -28.20046995 34.81839543 -33 37 C-33.99 35.68 -34.98 34.36 -36 33 C-35.19175781 32.55269531 -34.38351563 32.10539062 -33.55078125 31.64453125 C-25.41538517 27.35047827 -25.41538517 27.35047827 -19 21 C-18.91354155 18.4849918 -18.91354155 18.4849918 -20 16 C-22.5047259 14.09497396 -22.5047259 14.09497396 -25.5625 12.6875 C-26.57441406 12.17574219 -27.58632812 11.66398438 -28.62890625 11.13671875 C-29.41136719 10.76160156 -30.19382813 10.38648438 -31 10 C-30.01 8.68 -29.02 7.36 -28 6 C-27.46890625 6.30035156 -26.9378125 6.60070312 -26.390625 6.91015625 C-25.68421875 7.29042969 -24.9778125 7.67070312 -24.25 8.0625 C-23.55390625 8.44535156 -22.8578125 8.82820312 -22.140625 9.22265625 C-19.61889261 10.13839484 -18.47561212 9.94180896 -16 9 C-15.67 8.67 -15.34 8.34 -15 8 C-13.41699772 7.94723326 -11.83354192 7.90779525 -10.25 7.875 C-6.34739375 7.56093756 -6.34739375 7.56093756 -3.2265625 5.37890625 C-1.69092322 3.24802338 -1.69092322 3.24802338 0 0 Z " fill="#E6E6EA" transform="translate(279,156)"/>
<path d="M0 0 C3.40698386 1.34798057 6.27699593 3.51260237 9.25 5.625 C10.14203125 6.25664062 11.0340625 6.88828125 11.953125 7.5390625 C12.96632813 8.26222656 12.96632813 8.26222656 14 9 C13.33923951 10.3362701 12.67132457 11.66900581 12 13 C11.690625 13.62261719 11.38125 14.24523437 11.0625 14.88671875 C9.85416544 16.93466814 8.80221581 18.43393661 7 20 C4.33793431 20.64560333 1.94279204 20.8115233 -0.79296875 20.83203125 C-3.20919189 20.77492004 -3.20919189 20.77492004 -5 23 C-8.77745297 22.65082368 -11.5638478 21.32850651 -14.8125 19.4375 C-15.60269531 18.98246094 -16.39289063 18.52742188 -17.20703125 18.05859375 C-17.79871094 17.70925781 -18.39039063 17.35992187 -19 17 C-19.57792668 12.95451322 -19.83559221 9.49270842 -17.79296875 5.84375 C-15.22522415 2.90918474 -13.30542836 1.19649518 -9.37890625 0.60546875 C-6.6875 0.625 -6.6875 0.625 -4.13671875 0.8515625 C-1.94750895 1.18547308 -1.94750895 1.18547308 0 0 Z " fill="#07070B" transform="translate(267,144)"/>
<path d="M0 0 C2.30864589 0.99157245 4.59196215 2.01480455 6.875 3.0625 C7.52597656 3.33771484 8.17695313 3.61292969 8.84765625 3.89648438 C11.4576794 5.12077359 13.58337832 6.15512044 14.89160156 8.80810547 C15.4453125 10.74609375 15.4453125 10.74609375 16 14 C0.4590459 26.25652565 0.4590459 26.25652565 -6 28 C-8.9519154 27.01419243 -11.10569326 25.47031851 -13 23 C-13.73660364 16.57145918 -11.19399642 8.48760809 -8 3 C-5.53654745 1.47449218 -3.94964218 1.33392176 -1 1 C-0.67 0.67 -0.34 0.34 0 0 Z " fill="#08080A" transform="translate(245,164)"/>
<path d="M0 0 C0.66 0 1.32 0 2 0 C2.33 0.66 2.66 1.32 3 2 C3.70125 1.62875 4.4025 1.2575 5.125 0.875 C8.76443651 -0.23265459 10.55700411 0.55874591 14 2 C13.2265625 3.0828125 13.2265625 3.0828125 12.4375 4.1875 C10.78557018 7.4195366 10.93648325 8.61608307 12 12 C13.65 12.33 15.3 12.66 17 13 C17.4125 12.34 17.825 11.68 18.25 11 C19.11625 10.01 19.11625 10.01 20 9 C21.32 9 22.64 9 24 9 C24.99 11.64 25.98 14.28 27 17 C25.6078125 16.938125 25.6078125 16.938125 24.1875 16.875 C20.84190281 16.72863661 20.84190281 16.72863661 18 19 C15.3125 19.125 15.3125 19.125 13 19 C12.80664062 19.75925781 12.61328125 20.51851562 12.4140625 21.30078125 C12.15367187 22.29464844 11.89328125 23.28851563 11.625 24.3125 C11.36976563 25.29863281 11.11453125 26.28476563 10.8515625 27.30078125 C10 30 10 30 8 33 C7.67 32.34 7.34 31.68 7 31 C5.68 31 4.36 31 3 31 C-0.79016182 20.50937353 -2.45141814 11.03138161 0 0 Z " fill="#EBEBEF" transform="translate(224,148)"/>
<path d="M0 0 C7.425 2.97 7.425 2.97 15 6 C16 14 16 14 14.6640625 16.3125 C10.85739202 19.46284799 8.25791076 21.42495479 3.1875 21.375 C2.45917969 21.30023438 1.73085937 21.22546875 0.98046875 21.1484375 C-1.2115542 20.85593537 -1.2115542 20.85593537 -4 22 C-5.03817463 21.12432227 -6.05515303 20.22347209 -7.0625 19.3125 C-7.63097656 18.81363281 -8.19945312 18.31476563 -8.78515625 17.80078125 C-10 16 -10 16 -9.8984375 13.5859375 C-8.87238927 10.63270302 -7.53660626 8.72985674 -5.5625 6.3125 C-4.94503906 5.54550781 -4.32757813 4.77851563 -3.69140625 3.98828125 C-2 2 -2 2 0 0 Z " fill="#060609" transform="translate(237,128)"/>
<path d="M0 0 C2.79198366 1.39599183 4.6542879 3.60464523 6.75 5.875 C5.0841708 12.03856805 1.87194714 17.35759656 -1.25 22.875 C-4.268711 20.90198628 -7.26177199 18.89380287 -10.25 16.875 C-11.260625 16.215 -12.27125 15.555 -13.3125 14.875 C-15.25 12.875 -15.25 12.875 -15.37109375 9.75 C-15.33113281 8.80125 -15.29117187 7.8525 -15.25 6.875 C-13.17426919 5.67215599 -11.09116905 4.48794299 -9 3.3125 C-8.12021484 2.79913086 -8.12021484 2.79913086 -7.22265625 2.27539062 C-2.84715402 -0.15817522 -2.84715402 -0.15817522 0 0 Z " fill="#08090B" transform="translate(285.25,127.125)"/>
<path d="M0 0 C0 0.99 0 1.98 0 3 C-1.38481328 3.87191947 -2.78345246 4.72190384 -4.1875 5.5625 C-4.96480469 6.03816406 -5.74210937 6.51382813 -6.54296875 7.00390625 C-9.54224663 8.21982971 -10.92089505 7.82467312 -14 7 C-16.69786649 6.83736266 -19.29032946 6.90967765 -22 7 C-22.33 7.33 -22.66 7.66 -23 8 C-28.27207486 7.57823401 -32.28035231 6.21534483 -37 4 C-37 3.34 -37 2.68 -37 2 C-35.730447 1.35165346 -34.45930294 0.70642185 -33.1875 0.0625 C-32.47980469 -0.29714844 -31.77210938 -0.65679687 -31.04296875 -1.02734375 C-21.95807273 -5.35265753 -8.98512908 -3.9207836 0 0 Z " fill="#0B0B0D" transform="translate(279,122)"/>
<path d="M0 0 C13.09015257 10.57281553 13.09015257 10.57281553 15 18 C14.67 18.66 14.34 19.32 14 20 C6.91923749 20.40850553 0.80074041 18.90420731 -6 17 C-6.82901378 13.96028282 -7.31365978 12.0809485 -7 9 C-5.03211117 5.6566496 -2.63431969 2.83797034 0 0 Z " fill="#09090B" transform="translate(284,157)"/>
<path d="M0 0 C7.15588539 9.08015709 6.3412915 18.99018889 6 30 C1.33333333 25.33333333 -3.33333333 20.66666667 -8 16 C-6.73829891 11.82291191 -5.17688391 8.32803063 -2.875 4.625 C-2.06675781 3.31402344 -2.06675781 3.31402344 -1.2421875 1.9765625 C-0.83226562 1.32429687 -0.42234375 0.67203125 0 0 Z " fill="#0D0E10" transform="translate(295,138)"/>
<path d="M0 0 C2.625 0.25 2.625 0.25 4.4375 1.75 C4.829375 2.245 5.22125 2.74 5.625 3.25 C6.615 2.59 7.605 1.93 8.625 1.25 C8.955 2.57 9.285 3.89 9.625 5.25 C15.565 6.24 15.565 6.24 21.625 7.25 C21.955 8.9 22.285 10.55 22.625 12.25 C20.68701479 11.94052329 18.74962574 11.62731166 16.8125 11.3125 C15.73355469 11.13847656 14.65460938 10.96445313 13.54296875 10.78515625 C10.625 10.25 10.625 10.25 7.625 9.25 C7.625 9.91 7.625 10.57 7.625 11.25 C5.15153696 13.72346304 3.91738832 14.23313144 0.375 14.4375 C-0.5325 14.375625 -1.44 14.31375 -2.375 14.25 C-1.385 13.59 -0.395 12.93 0.625 12.25 C0.625 11.59 0.625 10.93 0.625 10.25 C-1.00126404 8.86767557 -2.6675002 7.53062485 -4.375 6.25 C-3.31585282 0.34903714 -3.31585282 0.34903714 0 0 Z " fill="#DBDCE0" transform="translate(268.375,168.75)"/>
<path d="M0 0 C2 0 2 0 4.0625 1.4375 C6.4897386 4.6477188 6.55390703 6.94103338 6.7265625 10.87890625 C6.87911366 13.29941647 6.87911366 13.29941647 9 16 C8.68890262 18.33323033 7.91358334 20.20523957 7 22.375 C5.90814525 25.24111871 5.42290178 27.9692039 5 31 C4.34 31 3.68 31 3 31 C-0.79016182 20.50937353 -2.45141814 11.03138161 0 0 Z " fill="#121116" transform="translate(224,148)"/>
<path d="M0 0 C0.66 0.33 1.32 0.66 2 1 C2.24042276 5.08718695 1.42258812 8.17679443 0 12 C-1.32 12 -2.64 12 -4 12 C-4.3403125 12.9590625 -4.3403125 12.9590625 -4.6875 13.9375 C-6 16 -6 16 -8.4375 16.9375 C-11 17 -11 17 -12.875 15.875 C-14 14 -14 14 -13.8125 11.5 C-13 9 -13 9 -11 6 C-11.99 5.34 -12.98 4.68 -14 4 C-11.08689608 2.54344804 -8.39574735 3.07832717 -5.19140625 3.2578125 C-2.48588856 2.9395163 -1.68666176 2.07171959 0 0 Z " fill="#E0DFE4" transform="translate(248,145)"/>
<path d="M0 0 C1.4540625 0.6496875 1.4540625 0.6496875 2.9375 1.3125 C0.19281341 3.14229106 -2.56904806 4.81073411 -5.4375 6.4375 C-6.37335938 6.97632813 -7.30921875 7.51515625 -8.2734375 8.0703125 C-11.15275819 9.35269902 -12.95477763 9.5724186 -16.0625 9.3125 C-16.0625 8.6525 -16.0625 7.9925 -16.0625 7.3125 C-16.7225 7.3125 -17.3825 7.3125 -18.0625 7.3125 C-17.85625 8.42625 -17.65 9.54 -17.4375 10.6875 C-17.31375 11.88375 -17.19 13.08 -17.0625 14.3125 C-19.0625 16.3125 -19.0625 16.3125 -21.5625 16.5625 C-24.0625 16.3125 -24.0625 16.3125 -26.0625 14.3125 C-26.5 11.875 -26.5 11.875 -26.0625 9.3125 C-23.625 7.6875 -23.625 7.6875 -21.0625 6.3125 C-20.7325 5.3225 -20.4025 4.3325 -20.0625 3.3125 C-18.6084375 3.7146875 -18.6084375 3.7146875 -17.125 4.125 C-13.44247606 4.7052765 -11.66480867 3.71887515 -8.5625 1.75 C-5.34208413 -0.26068846 -3.7045987 -1.10763759 0 0 Z " fill="#E9EAED" transform="translate(283.0625,124.6875)"/>
<path d="M0 0 C0.66 0.33 1.32 0.66 2 1 C2.50244141 2.71484375 2.50244141 2.71484375 2.8515625 4.9375 C2.98046875 5.75089844 3.109375 6.56429687 3.2421875 7.40234375 C3.43167969 8.68818359 3.43167969 8.68818359 3.625 10 C3.7590625 10.82628906 3.893125 11.65257812 4.03125 12.50390625 C4.88370084 18.06223364 5.12467374 23.37834777 5 29 C2.36 29 -0.28 29 -3 29 C-2.42878014 19.24416608 -1.39476293 9.66855081 0 0 Z " fill="#D4D5D8" transform="translate(303,238)"/>
<path d="M0 0 C1.32 0 2.64 0 4 0 C4.50559908 1.43554025 5.0042749 2.8735202 5.5 4.3125 C5.7784375 5.11300781 6.056875 5.91351563 6.34375 6.73828125 C7 9 7 9 7 12 C2.46298506 13.45184478 -1.18061476 14.23509196 -6 14 C-6.33 13.01 -6.66 12.02 -7 11 C-6.030625 10.608125 -5.06125 10.21625 -4.0625 9.8125 C-0.81603222 8.33497194 -0.81603222 8.33497194 -0.125 5.5 C-0.03342406 3.66848121 0 1.83380676 0 0 Z " fill="#EEEFF2" transform="translate(265,132)"/>
<path d="M0 0 C2 1 4 2 6 3 C6.33333333 5.33333333 6.66666667 7.66666667 7 10 C7.66 10.33 8.32 10.66 9 11 C9 11.99 9 12.98 9 14 C6.1875 14.25 6.1875 14.25 3 14 C0.8194961 11.8194961 0.05717287 10.50312129 -0.29296875 7.421875 C-0.25816406 6.54015625 -0.22335938 5.6584375 -0.1875 4.75 C-0.16042969 3.85796875 -0.13335937 2.9659375 -0.10546875 2.046875 C-0.07066406 1.37140625 -0.03585938 0.6959375 0 0 Z " fill="#DEDFE3" transform="translate(256,281)"/>
<path d="M0 0 C1 2 1 2 0.29296875 4.49609375 C-0.25423828 5.95208984 -0.25423828 5.95208984 -0.8125 7.4375 C-1.16957031 8.40558594 -1.52664062 9.37367188 -1.89453125 10.37109375 C-3 13 -3 13 -5 16 C-6.5625 14.9375 -6.5625 14.9375 -8 13 C-7.78347156 9.03031196 -7.40832946 5.25124478 -5 2 C-2.375 0.75 -2.375 0.75 0 0 Z " fill="#E7E6EB" transform="translate(237,165)"/>
<path d="M0 0 C2.5625 0.1875 2.5625 0.1875 4.5625 2.1875 C4.8125 4.6875 4.8125 4.6875 4.5625 7.1875 C3.9025 7.8475 3.2425 8.5075 2.5625 9.1875 C-0.73464793 8.85778521 -2.0601839 8.5648161 -4.4375 6.1875 C-3.71780303 0.28598485 -3.71780303 0.28598485 0 0 Z " fill="#151419" transform="translate(238.4375,152.8125)"/>
<path d="M0 0 C3.29714793 0.32971479 4.6226839 0.6226839 7 3 C6.44444444 7.55555556 6.44444444 7.55555556 5 9 C2.5625 9.1875 2.5625 9.1875 0 9 C-2 7 -2 7 -2.25 4.5 C-2 2 -2 2 0 0 Z " fill="#151519" transform="translate(259,132)"/>
<path d="M0 0 C2.5625 0.1875 2.5625 0.1875 4.5625 2.1875 C4.00694444 6.74305556 4.00694444 6.74305556 2.5625 8.1875 C0.125 8.375 0.125 8.375 -2.4375 8.1875 C-3.0975 7.5275 -3.7575 6.8675 -4.4375 6.1875 C-3.71780303 0.28598485 -3.71780303 0.28598485 0 0 Z " fill="#07060B" transform="translate(268.4375,168.8125)"/>
<path d="M0 0 C1.46300982 0.93018526 2.92025579 1.86944027 4.375 2.8125 C5.18710937 3.33457031 5.99921875 3.85664063 6.8359375 4.39453125 C9 6 9 6 11 9 C8.80078125 10.2109375 8.80078125 10.2109375 6 11 C3.54296875 9.6640625 3.54296875 9.6640625 1.1875 7.625 C0.39730469 6.95726562 -0.39289063 6.28953125 -1.20703125 5.6015625 C-1.79871094 5.07304687 -2.39039063 4.54453125 -3 4 C-2.01 2.68 -1.02 1.36 0 0 Z " fill="#E7E8EC" transform="translate(273,142)"/>
<path d="M0 0 C4.60853797 0.72008406 8.67237409 2.31295939 13 4 C11.68 5.32 10.36 6.64 9 8 C7.53932801 7.54917531 6.08151968 7.08906463 4.625 6.625 C3.81289062 6.36976563 3.00078125 6.11453125 2.1640625 5.8515625 C0 5 0 5 -2 3 C-1.34 3 -0.68 3 0 3 C0 2.01 0 1.02 0 0 Z " fill="#E3E3E6" transform="translate(242,126)"/>
<path d="M0 0 C4.51617599 -0.07654536 8.59085217 -0.10228696 13 1 C13.33 2.65 13.66 4.3 14 6 C12.03897046 5.77211278 10.08109495 5.51694943 8.125 5.25 C7.03445313 5.11078125 5.94390625 4.9715625 4.8203125 4.828125 C2 4 2 4 0.6171875 1.921875 C0.41351563 1.28765625 0.20984375 0.6534375 0 0 Z " fill="#E4E5E8" transform="translate(277,175)"/>
<path d="M0 0 C-2.475 4.455 -2.475 4.455 -5 9 C-6.65 9 -8.3 9 -10 9 C-9.34938905 7.32700041 -8.67966676 5.66140763 -8 4 C-7.71125 3.2575 -7.4225 2.515 -7.125 1.75 C-6 0 -6 0 -4 -0.8125 C-2 -1 -2 -1 0 0 Z " fill="#E3E4E7" transform="translate(295,139)"/>
<path d="M0 0 C0 1.32 0 2.64 0 4 C-4.1196377 5.29243536 -7.66831683 6.26252625 -12 6 C-11 3 -11 3 -8.8125 1.3125 C-5.63225084 -0.17161628 -3.46785727 -0.24194353 0 0 Z " fill="#F0F0F4" transform="translate(263,128)"/>
<path d="M0 0 C0.66 0.33 1.32 0.66 2 1 C-0.02882906 3.94180214 -2.05819786 5.97117094 -5 8 C-4.67 8.66 -4.34 9.32 -4 10 C-5.051875 10.3403125 -5.051875 10.3403125 -6.125 10.6875 C-9.69343613 12.31656867 -12.06514511 14.40640731 -15 17 C-11.69276967 9.88867845 -6.01650648 4.859486 0 0 Z " fill="#EBEBEC" transform="translate(155,91)"/>
<path d="M0 0 C0.66 0.33 1.32 0.66 2 1 C1.25 3.4375 1.25 3.4375 0 6 C-1.6875 6.6875 -1.6875 6.6875 -4 7 C-6.3347961 7.66152556 -8.66836622 8.32741333 -11 9 C-7.56638098 5.36440339 -4.2026393 2.63886654 0 0 Z " fill="#EBEAEC" transform="translate(169,81)"/>
<path d="M0 0 C2.97 1.32 5.94 2.64 9 4 C7.68 5.32 6.36 6.64 5 8 C1.535 6.02 1.535 6.02 -2 4 C-1.34 2.68 -0.68 1.36 0 0 Z " fill="#DDDDE1" transform="translate(250,162)"/>
<path d="M0 0 C-4.455 1.485 -4.455 1.485 -9 3 C-8.01 3.66 -7.02 4.32 -6 5 C-8.45901654 5.87822019 -9.56061193 6.19223228 -12 5.125 C-12.66 4.75375 -13.32 4.3825 -14 4 C-15.32739422 3.64375082 -16.66035856 3.30700116 -18 3 C-15.565036 2.30215669 -13.12772895 1.61646178 -10.6875 0.9375 C-9.65206055 0.63875977 -9.65206055 0.63875977 -8.59570312 0.33398438 C-3.33984375 -1.11328125 -3.33984375 -1.11328125 0 0 Z " fill="#E8E6E8" transform="translate(218,65)"/>
<path d="M0 0 C0.33 0.66 0.66 1.32 1 2 C2.134375 2.309375 3.26875 2.61875 4.4375 2.9375 C8 4 8 4 10 7 C5.428721 6.45144652 1.32564205 5.58255197 -3 4 C-2.34 3.67 -1.68 3.34 -1 3 C-0.67 2.01 -0.34 1.02 0 0 Z " fill="#EDECEF" transform="translate(204,354)"/>
<path d="M0 0 C0.69480469 0.32742188 1.38960937 0.65484375 2.10546875 0.9921875 C5.36368828 2.12662831 7.87449502 2.20056055 11.3125 2.125 C12.38113281 2.10695313 13.44976562 2.08890625 14.55078125 2.0703125 C15.76314453 2.03550781 15.76314453 2.03550781 17 2 C16.67 2.66 16.34 3.32 16 4 C14.109375 4.37890625 14.109375 4.37890625 11.75 4.5625 C8.43713027 4.85838629 5.25054299 5.26600642 2 6 C2.33 5.34 2.66 4.68 3 4 C2.01 3.34 1.02 2.68 0 2 C0 1.34 0 0.68 0 0 Z " fill="#D0D1D5" transform="translate(210,303)"/>
<path d="M0 0 C5 7.5 5 7.5 5 12 C3.68 12 2.36 12 1 12 C1.04125 11.2575 1.0825 10.515 1.125 9.75 C1.18720445 7.01480713 1.18720445 7.01480713 -0.0625 4.875 C-0.371875 4.25625 -0.68125 3.6375 -1 3 C-0.67 2.01 -0.34 1.02 0 0 Z " fill="#EEEDF0" transform="translate(401,160)"/>
<path d="M0 0 C2.475 0.99 2.475 0.99 5 2 C4.67 3.32 4.34 4.64 4 6 C2.02 6 0.04 6 -2 6 C-2.33 5.01 -2.66 4.02 -3 3 C-2.01 2.01 -1.02 1.02 0 0 Z " fill="#0C0C0E" transform="translate(237,128)"/>
<path d="M0 0 C0.66 0.33 1.32 0.66 2 1 C1.125 4.875 1.125 4.875 0 6 C-1.66617115 6.04063832 -3.33388095 6.042721 -5 6 C-5.33 5.34 -5.66 4.68 -6 4 C-5.01 4 -4.02 4 -3 4 C-3 3.34 -3 2.68 -3 2 C-2.01 1.34 -1.02 0.68 0 0 Z " fill="#EBECEE" transform="translate(183,289)"/>
<path d="M0 0 C0.66 0 1.32 0 2 0 C2.25 2.3125 2.25 2.3125 2 5 C0 6.8125 0 6.8125 -2 8 C-2.6875 6.25 -2.6875 6.25 -3 4 C-1.6875 1.75 -1.6875 1.75 0 0 Z " fill="#F0EFF4" transform="translate(252,142)"/>
<path d="M0 0 C2.31 0 4.62 0 7 0 C7.33 0.99 7.66 1.98 8 3 C7.01 3.66 6.02 4.32 5 5 C2.5 3.625 2.5 3.625 0 2 C0 1.34 0 0.68 0 0 Z " fill="#E6E7E9" transform="translate(177,233)"/>
<path d="M0 0 C-2.58411731 1.72274487 -4.54902656 2.68895522 -7.4375 3.6875 C-8.19933594 3.95949219 -8.96117187 4.23148437 -9.74609375 4.51171875 C-12.21829721 5.04729142 -13.62983284 4.80445309 -16 4 C-10.96003362 0.64002241 -6.00290323 -0.29282455 0 0 Z " fill="#FAF9FA" transform="translate(224,64)"/>
<path d="M0 0 C1.875 0.3125 1.875 0.3125 4 1 C4.66 1.99 5.32 2.98 6 4 C5.34 4 4.68 4 4 4 C3.67 4.99 3.34 5.98 3 7 C1.68 5.35 0.36 3.7 -1 2 C-0.67 1.34 -0.34 0.68 0 0 Z " fill="#E3E3E7" transform="translate(287,156)"/>
<path d="M0 0 C1.65 1.32 3.3 2.64 5 4 C4.01 4 3.02 4 2 4 C1.67 4.99 1.34 5.98 1 7 C-0.32 5.68 -1.64 4.36 -3 3 C-2.01 2.01 -1.02 1.02 0 0 Z " fill="#DFE0E3" transform="translate(273,142)"/>
<path d="M0 0 C1.98 0.66 3.96 1.32 6 2 C5.34 3.32 4.68 4.64 4 6 C4 5.34 4 4.68 4 4 C3.34 4 2.68 4 2 4 C1.67 4.66 1.34 5.32 1 6 C0.34 4.35 -0.32 2.7 -1 1 C-0.67 0.67 -0.34 0.34 0 0 Z " fill="#DFE0E4" transform="translate(263,128)"/>
<path d="M0 0 C0.66 0 1.32 0 2 0 C2.69937202 1.4317616 3.38412718 2.87067032 4.0625 4.3125 C4.63677734 5.51326172 4.63677734 5.51326172 5.22265625 6.73828125 C6 9 6 9 5 12 C4.16180842 10.37750059 3.3295884 8.75191503 2.5 7.125 C2.0359375 6.22007812 1.571875 5.31515625 1.09375 4.3828125 C0 2 0 2 0 0 Z " fill="#FBF9FC" transform="translate(130,282)"/>
<path d="M0 0 C-0.66 1.32 -1.32 2.64 -2 4 C-3.65 4 -5.3 4 -7 4 C-7 3.34 -7 2.68 -7 2 C-4 0 -4 0 0 0 Z " fill="#131315" transform="translate(249,122)"/>
<path d="M0 0 C2.64 0.33 5.28 0.66 8 1 C4.81237635 3.12508244 2.73487777 3.5020163 -1 4 C-0.67 2.68 -0.34 1.36 0 0 Z " fill="#EBEBEC" transform="translate(298,356)"/>
<path d="M0 0 C0.66 0.33 1.32 0.66 2 1 C0.02 2.98 -1.96 4.96 -4 7 C-4.66 6.67 -5.32 6.34 -6 6 C-5 3 -5 3 -2.5625 1.25 C-1.716875 0.8375 -0.87125 0.425 0 0 Z " fill="#EAE8EB" transform="translate(375,314)"/>
<path d="M0 0 C1.33332095 2.6666419 0.67102033 4.16680303 0 7 C-2.475 6.01 -2.475 6.01 -5 5 C-3.35 3.35 -1.7 1.7 0 0 Z " fill="#ECECEE" transform="translate(287,191)"/>
<path d="M0 0 C1.32 0.33 2.64 0.66 4 1 C4 1.99 4 2.98 4 4 C3.34 4.66 2.68 5.32 2 6 C1.34 5.34 0.68 4.68 0 4 C0 2.68 0 1.36 0 0 Z " fill="#EDEDEF" transform="translate(291,160)"/>
<path d="M0 0 C0.33 0.99 0.66 1.98 1 3 C0.67 3.66 0.34 4.32 0 5 C0.66 5 1.32 5 2 5 C0.768606 7.46278801 -0.78064923 8.42497687 -3 10 C-2.49287967 6.28111761 -1.88391785 3.26545761 0 0 Z " fill="#E5E5E6" transform="translate(124,133)"/>
<path d="M0 0 C-0.66 0 -1.32 0 -2 0 C-2.33 0.99 -2.66 1.98 -3 3 C-3.99 3.33 -4.98 3.66 -6 4 C-6.99 3.34 -7.98 2.68 -9 2 C-3.375 -1.125 -3.375 -1.125 0 0 Z " fill="#E7E4E9" transform="translate(188,74)"/>
<path d="M0 0 C1.32 0.66 2.64 1.32 4 2 C2.515 4.475 2.515 4.475 1 7 C0.31292445 4.50935112 0 2.62113708 0 0 Z " fill="#E6E7EB" transform="translate(298,170)"/>
<path d="" fill="#000000" transform="translate(0,0)"/>
<path d="" fill="#000000" transform="translate(0,0)"/>
<path d="" fill="#000000" transform="translate(0,0)"/>
<path d="" fill="#000000" transform="translate(0,0)"/>
<path d="" fill="#000000" transform="translate(0,0)"/>
<path d="" fill="#000000" transform="translate(0,0)"/>
<path d="" fill="#000000" transform="translate(0,0)"/>
<path d="" fill="#000000" transform="translate(0,0)"/>
<path d="" fill="#000000" transform="translate(0,0)"/>
<path d="" fill="#000000" transform="translate(0,0)"/>
<path d="" fill="#000000" transform="translate(0,0)"/>
<path d="" fill="#000000" transform="translate(0,0)"/>
<path d="" fill="#000000" transform="translate(0,0)"/>
<path d="" fill="#000000" transform="translate(0,0)"/>
<path d="" fill="#000000" transform="translate(0,0)"/>
<path d="" fill="#000000" transform="translate(0,0)"/>
<path d="" fill="#000000" transform="translate(0,0)"/>
<path d="" fill="#000000" transform="translate(0,0)"/>
<path d="" fill="#000000" transform="translate(0,0)"/>
<path d="" fill="#000000" transform="translate(0,0)"/>
<path d="" fill="#000000" transform="translate(0,0)"/>
<path d="" fill="#000000" transform="translate(0,0)"/>
<path d="" fill="#000000" transform="translate(0,0)"/>
<path d="" fill="#000000" transform="translate(0,0)"/>
<path d="" fill="#000000" transform="translate(0,0)"/>
<path d="" fill="#000000" transform="translate(0,0)"/>
<path d="" fill="#000000" transform="translate(0,0)"/>
<path d="" fill="#000000" transform="translate(0,0)"/>
<path d="" fill="#000000" transform="translate(0,0)"/>
<path d="" fill="#000000" transform="translate(0,0)"/>
<path d="" fill="#000000" transform="translate(0,0)"/>
<path d="" fill="#000000" transform="translate(0,0)"/>
<path d="" fill="#000000" transform="translate(0,0)"/>
<path d="" fill="#000000" transform="translate(0,0)"/>
<path d="" fill="#000000" transform="translate(0,0)"/>
<path d="" fill="#000000" transform="translate(0,0)"/>
<path d="" fill="#000000" transform="translate(0,0)"/>
<path d="" fill="#000000" transform="translate(0,0)"/>
<path d="" fill="#000000" transform="translate(0,0)"/>
<path d="" fill="#000000" transform="translate(0,0)"/>
<path d="" fill="#000000" transform="translate(0,0)"/>
<path d="" fill="#000000" transform="translate(0,0)"/>
<path d="" fill="#000000" transform="translate(0,0)"/>
<path d="" fill="#000000" transform="translate(0,0)"/>
<path d="" fill="#000000" transform="translate(0,0)"/>
<path d="" fill="#000000" transform="translate(0,0)"/>
<path d="" fill="#000000" transform="translate(0,0)"/>
<path d="" fill="#000000" transform="translate(0,0)"/>
<path d="" fill="#000000" transform="translate(0,0)"/>
<path d="" fill="#000000" transform="translate(0,0)"/>
<path d="" fill="#000000" transform="translate(0,0)"/>
<path d="" fill="#000000" transform="translate(0,0)"/>
<path d="" fill="#000000" transform="translate(0,0)"/>
<path d="" fill="#000000" transform="translate(0,0)"/>
<path d="" fill="#000000" transform="translate(0,0)"/>
<path d="" fill="#000000" transform="translate(0,0)"/>
</svg>
